Coordinates
version=1
nRows=10
nColumns=40
inDegrees=yes

Units are S.I. units (second, meters, Newtons, ...)
If the header above contains a line with 'inDegrees', this indicates whether rotational values are in degrees (yes) or radians (no).

endheader
time	pelvis_tilt	pelvis_list	pelvis_rotation	pelvis_tx	pelvis_ty	pelvis_tz	hip_flexion_r	hip_adduction_r	hip_rotation_r	knee_angle_r	knee_angle_r_beta	ankle_angle_r	subtalar_angle_r	mtp_angle_r	hip_flexion_l	hip_adduction_l	hip_rotation_l	knee_angle_l	knee_angle_l_beta	ankle_angle_l	subtalar_angle_l	mtp_angle_l	lumbar_extension	lumbar_bending	lumbar_rotation	arm_flex_r	arm_add_r	arm_rot_r	elbow_flex_r	pro_sup_r	wrist_flex_r	wrist_dev_r	arm_flex_l	arm_add_l	arm_rot_l	elbow_flex_l	pro_sup_l	wrist_flex_l	wrist_dev_l
      1.73500000	      2.83934231	      0.44683174	     -7.74391838	      1.50614184	      0.91179246	      0.25893529	    -20.98296714	     -5.63570241	     -7.81312229	     22.72261464	      0.39658444	    -11.56272069	      4.37071793	      0.00000000	     22.01112139	     -5.34222649	    -22.42311952	     19.34552306	      0.33764307	     -6.93931834	     -0.66504981	      0.00000000	     -4.16268696	     -3.19243967	      3.42653311	     40.85032045	    -14.90308194	     40.85032045	     75.29040258	     44.99924214	      0.00000000	      0.00000000	     40.85032045	    -14.90308194	     40.85032045	     75.29040258	     44.99924214	      0.00000000	      0.00000000
      1.74000000	      2.60400571	      0.30376369	     -7.00976084	      1.51403370	      0.91199344	      0.25618613	    -20.13732771	     -5.58988393	     -8.66788795	     24.45856737	      0.42688253	    -13.12351300	      3.76492489	      0.00000000	     22.32879501	     -5.04577544	    -21.11739390	     20.23387041	      0.35314766	     -6.52825334	     -1.67382339	      0.00000000	     -3.76528916	     -2.79891363	      2.71781334	     40.86423363	    -14.90361795	     40.86423363	     75.28726594	     44.99926466	      0.00000000	      0.00000000	     40.86423363	    -14.90361795	     40.86423363	     75.28726594	     44.99926466	      0.00000000	      0.00000000
      1.74500000	      3.00638390	      0.29913585	     -6.72195080	      1.52200199	      0.91347127	      0.25449886	    -20.01467612	     -5.83892685	     -9.00708540	     25.84755194	      0.45112488	    -15.02692075	      3.11125046	      0.00000000	     21.63819519	     -4.71031920	    -20.69609618	     20.69732919	      0.36123654	     -6.07271966	     -2.01986507	      0.00000000	     -4.11880174	     -2.71906146	      2.56337286	     40.86639319	    -14.90370104	     40.86639319	     75.28678111	     44.99926810	      0.00000000	      0.00000000	     40.86639319	    -14.90370104	     40.86639319	     75.28678111	     44.99926810	      0.00000000	      0.00000000
      1.75000000	      2.91236615	      0.73268169	     -6.28314905	      1.52936920	      0.91372501	      0.25223739	    -18.83584327	     -6.70051386	    -10.03868559	     28.36537187	      0.49506913	    -16.15510090	      2.34169888	      0.00000000	     21.54104295	     -3.66302465	    -19.51976079	     20.89991902	      0.36477240	     -5.96741318	     -4.04743073	      0.00000000	     -3.83951320	     -3.13658633	      2.21167750	     40.87776868	    -14.90413829	     40.87776868	     75.28423635	     44.99928601	      0.00000000	      0.00000000	     40.87776868	    -14.90413829	     40.87776868	     75.28423635	     44.99928601	      0.00000000	      0.00000000
      1.75500000	      3.19057766	      1.68087935	     -6.16749491	      1.53729884	      0.91436315	      0.25090610	    -18.00987604	     -8.38048749	    -11.27268597	     30.90655904	      0.53942122	    -17.41781091	      2.49804256	      0.00000000	     20.78103632	     -2.17333735	    -19.09581348	     20.71254239	      0.36150206	     -5.84533077	     -5.54658587	      0.00000000	     -3.85099395	     -4.40608897	      1.95475774	     40.90012452	    -14.90499536	     40.90012452	     75.27928019	     44.99932008	      0.00000000	      0.00000000	     40.90012452	    -14.90499536	     40.90012452	     75.27928019	     44.99932008	      0.00000000	      0.00000000
      1.76000000	      3.31856205	      1.94484594	     -6.09222478	      1.54492698	      0.91517567	      0.24969626	    -17.11527135	     -9.06903614	    -11.48367449	     33.09843405	      0.57767665	    -18.88386129	      1.30133066	      0.00000000	     20.27532904	     -1.58389149	    -18.80306548	     20.90538760	      0.36486785	     -5.39342159	     -6.38747959	      0.00000000	     -3.82577640	     -4.70536133	      1.86263152	     40.90903399	    -14.90533610	     40.90903399	     75.27732151	     44.99933326	      0.00000000	      0.00000000	     40.90903399	    -14.90533610	     40.90903399	     75.27732151	     44.99933326	      0.00000000	      0.00000000
      1.76500000	      3.35937582	      2.76160708	     -6.15283476	      1.55243313	      0.91535638	      0.24885294	    -15.84581343	    -10.57764088	    -12.06705856	     35.83138290	      0.62537561	    -20.15815919	      0.63492710	      0.00000000	     19.79358295	     -0.42148753	    -18.63937709	     20.79482835	      0.36293822	     -5.12979423	     -7.46657571	      0.00000000	     -3.59117066	     -5.74391985	      1.95480761	     40.93531352	    -14.90633828	     40.93531352	     75.27160039	     44.99937080	      0.00000000	      0.00000000	     40.93531352	    -14.90633828	     40.93531352	     75.27160039	     44.99937080	      0.00000000	      0.00000000
      1.77000000	      3.67339921	      2.64780441	     -6.05942704	      1.55971691	      0.91686795	      0.24759484	    -15.23613137	    -10.73360452	    -11.87363787	     37.58421284	      0.65596826	    -21.99117152	     -0.30304944	      0.00000000	     18.96148151	     -0.25933268	    -18.31199156	     20.81012244	      0.36320515	     -4.52687078	     -7.49332587	      0.00000000	     -3.97401598	     -5.48328533	      1.75470303	     40.93701201	    -14.90640291	     40.93701201	     75.27123349	     44.99937316	      0.00000000	      0.00000000	     40.93701201	    -14.90640291	     40.93701201	     75.27123349	     44.99937316	      0.00000000	      0.00000000
      1.77500000	      3.39691244	      3.70989496	     -6.55283130	      1.56657874	      0.91647546	      0.24797004	    -13.20686442	    -12.36640169	    -11.50052211	     40.71120608	      0.71054459	    -23.06556919	     -2.71706124	      0.00000000	     18.80607758	      0.85992017	    -18.76664840	     20.62652470	      0.36000077	     -4.38146837	     -8.11610113	      0.00000000	     -3.31777730	     -6.94318990	      2.47963013	     40.96167794	    -14.90733936	     40.96167794	     75.26594571	     44.99940651	      0.00000000	      0.00000000	     40.96167794	    -14.90733936	     40.96167794	     75.26594571	     44.99940651	      0.00000000	      0.00000000
      1.78000000	      3.50960956	      3.86268692	     -6.87549563	      1.57319269	      0.91759674	      0.24796547	    -11.98520136	    -12.71072208	    -10.64640074	     42.88464204	      0.74847820	    -24.57406778	     -4.92394680	      0.00000000	     18.15259805	      1.04738731	    -19.06794840	     20.51270926	      0.35801432	     -3.99436821	     -7.98293451	      0.00000000	     -3.38452645	     -7.22005946	      2.68409477	     40.97488002	    -14.90783915	     40.97488002	     75.26314322	     44.99942374	      0.00000000	      0.00000000	     40.97488002	    -14.90783915	     40.97488002	     75.26314322	     44.99942374	      0.00000000	      0.00000000
